<svg width="64" height="64" viewBox="0 0 64 64" xmlns="http://www.w3.org/2000/svg">
  <!-- Optimized for light backgrounds -->
  <defs>
    <linearGradient id="light-bg" x1="0%" y1="0%" x2="100%" y2="100%">
      <stop offset="0%" style="stop-color:#00cc34;stop-opacity:1" />
      <stop offset="30%" style="stop-color:#009928;stop-opacity:1" />
      <stop offset="70%" style="stop-color:#007a1f;stop-opacity:1" />
      <stop offset="100%" style="stop-color:#005c17;stop-opacity:1" />
    </linearGradient>
    
    <linearGradient id="light-accent" x1="0%" y1="0%" x2="100%" y2="100%">
      <stop offset="0%" style="stop-color:#009928;stop-opacity:1" />
      <stop offset="100%" style="stop-color:#00cc34;stop-opacity:0.8" />
    </linearGradient>
    
    <!-- Subtle shadow for light backgrounds -->
    <filter id="light-shadow" x="-50%" y="-50%" width="200%" height="200%">
      <feDropShadow dx="0" dy="1" stdDeviation="1" flood-color="#000000" flood-opacity="0.1"/>
    </filter>
  </defs>
  
  <!-- Main structure -->
  <path d="M32 8 L50 16 L50 32 L44 40 L32 48 L20 40 L14 32 L14 16 Z" 
        fill="none" 
        stroke="url(#light-bg)" 
        stroke-width="2.5" 
        filter="url(#light-shadow)"/>
  
  <!-- DD optimized for light backgrounds -->
  <g transform="translate(20, 20)">
    <path d="M0 0 L0 24 L12 24 C18 24 22 20 22 12 C22 4 18 0 12 0 Z" 
          fill="url(#light-bg)"
          filter="url(#light-shadow)"/>
    <path d="M16 3 L16 21 L24 21 C28 21 30 19 30 15 C30 11 28 9 24 9 L16 9 Z" 
          fill="url(#light-accent)" 
          opacity="0.9"/>
  </g>
  
  <!-- Central core -->
  <circle cx="32" cy="32" r="4" fill="url(#light-bg)" filter="url(#light-shadow)"/>
  <circle cx="32" cy="32" r="2" fill="#ffffff"/>
  
  <!-- Connection points -->
  <circle cx="22" cy="12" r="1.5" fill="url(#light-bg)"/>
  <circle cx="42" cy="12" r="1.5" fill="url(#light-bg)"/>
  <circle cx="22" cy="52" r="1.5" fill="url(#light-accent)"/>
  <circle cx="42" cy="52" r="1.5" fill="url(#light-accent)"/>
</svg>