<svg width="80" height="80" viewBox="0 0 80 80" xmlns="http://www.w3.org/2000/svg">
  <defs>
    <!-- Gradiente principal -->
    <linearGradient id="mainGradient" x1="0%" y1="0%" x2="100%" y2="100%">
      <stop offset="0%" style="stop-color:#00ff41;stop-opacity:1" />
      <stop offset="50%" style="stop-color:#39ff5c;stop-opacity:1" />
      <stop offset="100%" style="stop-color:#00cc34;stop-opacity:1" />
    </linearGradient>
    
    <!-- Gradiente secundario -->
    <linearGradient id="secondaryGradient" x1="0%" y1="0%" x2="100%" y2="100%">
      <stop offset="0%" style="stop-color:#39ff5c;stop-opacity:0.7" />
      <stop offset="100%" style="stop-color:#00ff41;stop-opacity:0.9" />
    </linearGradient>
    
    <!-- Efecto glow sutil -->
    <filter id="subtleGlow" x="-20%" y="-20%" width="140%" height="140%">
      <feGaussianBlur stdDeviation="2" result="coloredBlur"/>
      <feMerge> 
        <feMergeNode in="coloredBlur"/>
        <feMergeNode in="SourceGraphic"/>
      </feMerge>
    </filter>
  </defs>
  
  <!-- Marco hexagonal moderno -->
  <path d="M40 10 L60 22 L60 46 L40 58 L20 46 L20 22 Z" 
        fill="none" 
        stroke="url(#mainGradient)" 
        stroke-width="2.5" 
        filter="url(#subtleGlow)"/>
  
  <!-- Primera D (principal) -->
  <path d="M28 25 L28 43 L35 43 C39 43 42 40 42 36.5 C42 33 39 30 35 30 L28 30 Z" 
        fill="url(#mainGradient)"/>
  
  <!-- Segunda D (integrada con la primera) -->
  <path d="M42 30 L42 48 L49 48 C53 48 56 45 56 41.5 C56 38 53 35 49 35 L42 35 Z" 
        fill="url(#secondaryGradient)"/>
  
  <!-- Punto central de conexión (representando IA/tecnología) -->
  <circle cx="40" cy="40" r="6" fill="rgba(0, 255, 65, 0.2)"/>
  <circle cx="40" cy="40" r="3" fill="url(#mainGradient)"/>
  <circle cx="40" cy="40" r="1.5" fill="#ffffff"/>
  
  <!-- Elementos tech minimalistas -->
  <circle cx="40" cy="20" r="2" fill="url(#mainGradient)" opacity="0.8">
    <animate attributeName="opacity" values="0.8;0.3;0.8" dur="3s" repeatCount="indefinite"/>
  </circle>
  <circle cx="40" cy="60" r="2" fill="url(#mainGradient)" opacity="0.8">
    <animate attributeName="opacity" values="0.3;0.8;0.3" dur="3s" repeatCount="indefinite"/>
  </circle>
</svg>