<svg width="120" height="120" viewBox="0 0 120 120" xmlns="http://www.w3.org/2000/svg">
  <defs>
    <!-- Gradiente principal vibrante -->
    <linearGradient id="main-gradient" x1="0%" y1="0%" x2="100%" y2="100%">
      <stop offset="0%" style="stop-color:#00ff41;stop-opacity:1" />
      <stop offset="30%" style="stop-color:#39ff5c;stop-opacity:1" />
      <stop offset="70%" style="stop-color:#00cc34;stop-opacity:1" />
      <stop offset="100%" style="stop-color:#009928;stop-opacity:1" />
    </linearGradient>
    
    <!-- Gradiente secundario -->
    <linearGradient id="accent-gradient" x1="0%" y1="0%" x2="100%" y2="100%">
      <stop offset="0%" style="stop-color:#39ff5c;stop-opacity:0.9" />
      <stop offset="100%" style="stop-color:#00ff41;stop-opacity:0.6" />
    </linearGradient>
    
    <!-- Glow intenso -->
    <filter id="intense-glow" x="-50%" y="-50%" width="200%" height="200%">
      <feGaussianBlur stdDeviation="4" result="coloredBlur"/>
      <feMerge> 
        <feMergeNode in="coloredBlur"/>
        <feMergeNode in="SourceGraphic"/>
      </feMerge>
    </filter>
    
    <!-- Sombra dramática -->
    <filter id="drop-shadow">
      <feDropShadow dx="0" dy="6" stdDeviation="8" flood-color="#00ff41" flood-opacity="0.5"/>
    </filter>
  </defs>
  
  <!-- Estructura principal - Forma futurística -->
  <path d="M60 15 L95 30 L95 60 L80 75 L60 90 L40 75 L25 60 L25 30 Z" 
        fill="none" 
        stroke="url(#main-gradient)" 
        stroke-width="4" 
        filter="url(#intense-glow)"/>
  
  <!-- DD integrado de forma moderna -->
  <g transform="translate(30, 40)">
    <!-- Primera D estilizada -->
    <path d="M0 0 L0 40 L20 40 C30 40 38 32 38 20 C38 8 30 0 20 0 Z" 
          fill="url(#main-gradient)" 
          filter="url(#drop-shadow)"/>
    
    <!-- Segunda D superpuesta -->
    <path d="M28 6 L28 34 L42 34 C50 34 54 30 54 23 C54 16 50 12 42 12 L28 12 Z" 
          fill="url(#accent-gradient)" 
          opacity="0.9"/>
  </g>
  
  <!-- Elementos tech modernos -->
  <circle cx="60" cy="35" r="12" 
          fill="rgba(0, 255, 65, 0.15)" 
          stroke="url(#accent-gradient)" 
          stroke-width="3" 
          opacity="0.7"/>
  
  <!-- Core central brillante -->
  <circle cx="60" cy="60" r="8" fill="url(#main-gradient)"/>
  <circle cx="60" cy="60" r="5" fill="#ffffff" opacity="0.9"/>
  <circle cx="60" cy="60" r="2.5" fill="url(#main-gradient)"/>
  
  <!-- Puntos de conexión animados -->
  <circle cx="35" cy="20" r="4" fill="url(#main-gradient)">
    <animate attributeName="r" values="4;6;4" dur="2s" repeatCount="indefinite"/>
    <animate attributeName="opacity" values="0.8;1;0.8" dur="2s" repeatCount="indefinite"/>
  </circle>
  <circle cx="85" cy="20" r="4" fill="url(#main-gradient)">
    <animate attributeName="r" values="6;4;6" dur="2s" repeatCount="indefinite"/>
    <animate attributeName="opacity" values="1;0.8;1" dur="2s" repeatCount="indefinite"/>
  </circle>
  <circle cx="35" cy="100" r="3" fill="url(#accent-gradient)">
    <animate attributeName="opacity" values="0.6;1;0.6" dur="3s" repeatCount="indefinite"/>
  </circle>
  <circle cx="85" cy="100" r="3" fill="url(#accent-gradient)">
    <animate attributeName="opacity" values="1;0.6;1" dur="3s" repeatCount="indefinite"/>
  </circle>
  
  <!-- Líneas de conexión dinámicas -->
  <path d="M35 20 L60 35 L85 20" 
        stroke="url(#accent-gradient)" 
        stroke-width="2" 
        opacity="0.7" 
        fill="none"/>
  <path d="M35 100 L60 85 L85 100" 
        stroke="url(#accent-gradient)" 
        stroke-width="2" 
        opacity="0.7" 
        fill="none"/>
  
  <!-- Elementos decorativos en las esquinas -->
  <path d="M20 20 L30 20 L30 30 M100 20 L90 20 L90 30 M20 100 L30 100 L30 90 M100 100 L90 100 L90 90" 
        stroke="url(#accent-gradient)" 
        stroke-width="2.5" 
        fill="none" 
        opacity="0.6"/>
</svg>