<svg width="120" height="120" viewBox="0 0 120 120" xmlns="http://www.w3.org/2000/svg">
  <defs>
    <!-- Gradientes principales -->
    <linearGradient id="primaryGradient" x1="0%" y1="0%" x2="100%" y2="100%">
      <stop offset="0%" style="stop-color:#00ff41;stop-opacity:1" />
      <stop offset="25%" style="stop-color:#39ff5c;stop-opacity:1" />
      <stop offset="75%" style="stop-color:#00cc34;stop-opacity:1" />
      <stop offset="100%" style="stop-color:#009928;stop-opacity:1" />
    </linearGradient>
    
    <!-- Gradiente para efectos secundarios -->
    <linearGradient id="accentGradient" x1="0%" y1="0%" x2="100%" y2="100%">
      <stop offset="0%" style="stop-color:#39ff5c;stop-opacity:0.8" />
      <stop offset="100%" style="stop-color:#00ff41;stop-opacity:0.4" />
    </linearGradient>
    
    <!-- Filtro de glow -->
    <filter id="glow" x="-50%" y="-50%" width="200%" height="200%">
      <feGaussianBlur stdDeviation="3" result="coloredBlur"/>
      <feMerge> 
        <feMergeNode in="coloredBlur"/>
        <feMergeNode in="SourceGraphic"/>
      </feMerge>
    </filter>
    
    <!-- Filtro de sombra suave -->
    <filter id="softShadow" x="-50%" y="-50%" width="200%" height="200%">
      <feDropShadow dx="0" dy="2" stdDeviation="4" flood-color="#00ff41" flood-opacity="0.3"/>
    </filter>
  </defs>
  
  <!-- Círculo exterior principal -->
  <circle cx="60" cy="60" r="50" 
          fill="none" 
          stroke="url(#primaryGradient)" 
          stroke-width="3" 
          filter="url(#glow)"/>
  
  <!-- Círculo interior con efecto de profundidad -->
  <circle cx="60" cy="60" r="35" 
          fill="rgba(0, 255, 65, 0.1)" 
          stroke="url(#accentGradient)" 
          stroke-width="2"/>
  
  <!-- Estructura de la D principal (lado izquierdo) -->
  <path d="M35 35 L35 85 L50 85 C60 85 70 75 70 60 C70 45 60 35 50 35 Z" 
        fill="url(#primaryGradient)" 
        filter="url(#softShadow)"/>
  
  <!-- Estructura de la D secundaria (lado derecho, más pequeña) -->
  <path d="M75 40 L75 80 L85 80 C90 80 95 75 95 65 C95 55 90 50 85 50 L75 50 Z" 
        fill="url(#accentGradient)" 
        opacity="0.8"/>
  
  <!-- Elementos tecnológicos - puntos de conexión -->
  <circle cx="60" cy="30" r="3" fill="url(#primaryGradient)">
    <animate attributeName="opacity" values="1;0.3;1" dur="2s" repeatCount="indefinite"/>
  </circle>
  <circle cx="30" cy="60" r="3" fill="url(#primaryGradient)">
    <animate attributeName="opacity" values="0.3;1;0.3" dur="2s" repeatCount="indefinite"/>
  </circle>
  <circle cx="90" cy="60" r="3" fill="url(#primaryGradient)">
    <animate attributeName="opacity" values="1;0.3;1" dur="2s" repeatCount="indefinite"/>
  </circle>
  <circle cx="60" cy="90" r="3" fill="url(#primaryGradient)">
    <animate attributeName="opacity" values="0.3;1;0.3" dur="2s" repeatCount="indefinite"/>
  </circle>
  
  <!-- Líneas de conexión (representando redes neurales/conexiones) -->
  <path d="M60 30 L35 50 M60 30 L85 50 M60 90 L35 70 M60 90 L85 70" 
        stroke="url(#accentGradient)" 
        stroke-width="1" 
        opacity="0.6"/>
  
  <!-- Centro tecnológico - núcleo de procesamiento -->
  <circle cx="60" cy="60" r="8" fill="url(#primaryGradient)" opacity="0.9"/>
  <circle cx="60" cy="60" r="4" fill="#ffffff"/>
  <circle cx="60" cy="60" r="2" fill="url(#primaryGradient)"/>
  
  <!-- Elementos decorativos - esquinas tecnológicas -->
  <path d="M20 20 L25 20 L25 25 M100 20 L95 20 L95 25 M20 100 L25 100 L25 95 M100 100 L95 100 L95 95" 
        stroke="url(#accentGradient)" 
        stroke-width="2" 
        fill="none" 
        opacity="0.7"/>
</svg>