<svg width="200" height="50" viewBox="0 0 200 50" xmlns="http://www.w3.org/2000/svg">
  <defs>
    <linearGradient id="header" x1="0%" y1="0%" x2="100%" y2="100%">
      <stop offset="0%" style="stop-color:#00ff41"/>
      <stop offset="100%" style="stop-color:#00cc34"/>
    </linearGradient>
  </defs>
  
  <!-- Compact icon for header -->
  <g transform="translate(5, 5)">
    <path d="M20 5 L30 8 L30 20 L27 25 L20 30 L13 25 L10 20 L10 8 Z" 
          fill="none" 
          stroke="url(#header)" 
          stroke-width="1.5"/>
    
    <!-- Simplified DD -->
    <g transform="translate(13, 13)">
      <path d="M0 0 L0 14 L7 14 C10 14 12 12 12 7 C12 2 10 0 7 0 Z" 
            fill="url(#header)"/>
      <path d="M9 2 L9 12 L14 12 C16 12 17 11 17 9 C17 7 16 6 14 6 L9 6 Z" 
            fill="url(#header)" 
            opacity="0.8"/>
    </g>
    
    <circle cx="20" cy="20" r="2" fill="url(#header)"/>
    <circle cx="20" cy="20" r="1" fill="#ffffff"/>
  </g>
  
  <!-- Header text -->
  <g transform="translate(50, 0)">
    <text x="0" y="22" 
          font-family="'Orbitron', monospace" 
          font-weight="600" 
          font-size="16" 
          fill="url(#header)">DD</text>
    <text x="0" y="35" 
          font-family="'Orbitron', monospace" 
          font-weight="300" 
          font-size="8" 
          fill="url(#header)" 
          opacity="0.8">SOLUTIONS</text>
          
    <text x="70" y="22" 
          font-family="'Inter', sans-serif" 
          font-weight="400" 
          font-size="10" 
          fill="url(#header)" 
          opacity="0.6">AI & AUTOMATION</text>
    <text x="70" y="32" 
          font-family="'Inter', sans-serif" 
          font-weight="300" 
          font-size="8" 
          fill="url(#header)" 
          opacity="0.5">SOLUTIONS</text>
  </g>
</svg>