<svg width="200" height="200" viewBox="0 0 200 200" xmlns="http://www.w3.org/2000/svg">
  <defs>
    <!-- Gradiente dinámico -->
    <radialGradient id="pro3-radial" cx="50%" cy="50%" r="50%">
      <stop offset="0%" style="stop-color:#39ff5c;stop-opacity:1" />
      <stop offset="50%" style="stop-color:#00ff41;stop-opacity:1" />
      <stop offset="100%" style="stop-color:#009928;stop-opacity:1" />
    </radialGradient>
    
    <linearGradient id="pro3-linear" x1="0%" y1="0%" x2="100%" y2="100%">
      <stop offset="0%" style="stop-color:#00ff41;stop-opacity:1" />
      <stop offset="100%" style="stop-color:#00cc34;stop-opacity:1" />
    </linearGradient>
    
    <!-- Blur para efecto de velocidad -->
    <filter id="pro3-motion-blur" x="-200%" y="-200%" width="400%" height="400%">
      <feGaussianBlur in="SourceGraphic" stdDeviation="2,0"/>
    </filter>
  </defs>
  
  <!-- Logo dinámico con sensación de movimiento -->
  <g transform="translate(100, 100)">
    <!-- Swoosh principal -->
    <path d="M-60 0 Q-30 -40, 0 -40 Q30 -40, 60 0 Q30 40, 0 40 Q-30 40, -60 0" 
          fill="none" 
          stroke="url(#pro3-linear)" 
          stroke-width="6" 
          stroke-linecap="round"/>
    
    <!-- Elementos de velocidad -->
    <g filter="url(#pro3-motion-blur)">
      <path d="M-70 -10 L-40 -10 M-70 0 L-30 0 M-70 10 L-40 10" 
            stroke="url(#pro3-linear)" 
            stroke-width="2" 
            stroke-linecap="round" 
            opacity="0.6"/>
    </g>
    
    <!-- Núcleo energético -->
    <circle cx="0" cy="0" r="35" 
            fill="url(#pro3-radial)" 
            opacity="0.3"/>
    
    <circle cx="0" cy="0" r="25" 
            fill="none" 
            stroke="url(#pro3-linear)" 
            stroke-width="3"/>
    
    <!-- DD estilizado -->
    <g transform="scale(1.2)">
      <!-- Primera D -->
      <path d="M-12 -10 L-12 10 L-4 10 Q4 10, 4 0 Q4 -10, -4 -10 Z" 
            fill="url(#pro3-linear)"/>
      
      <!-- Segunda D con superposición -->
      <path d="M-2 -10 L-2 10 L6 10 Q14 10, 14 0 Q14 -10, 6 -10 Z" 
            fill="url(#pro3-linear)" 
            opacity="0.8"/>
    </g>
    
    <!-- Acentos de energía -->
    <circle cx="-35" cy="-35" r="3" fill="url(#pro3-linear)" opacity="0.8"/>
    <circle cx="35" cy="35" r="3" fill="url(#pro3-linear)" opacity="0.8"/>
    <circle cx="35" cy="-35" r="2" fill="url(#pro3-linear)" opacity="0.6"/>
    <circle cx="-35" cy="35" r="2" fill="url(#pro3-linear)" opacity="0.6"/>
  </g>
</svg>