<svg width="200" height="200" viewBox="0 0 200 200" xmlns="http://www.w3.org/2000/svg">
  <defs>
    <!-- Gradiente de datos -->
    <linearGradient id="pro6-data" x1="0%" y1="0%" x2="100%" y2="100%">
      <stop offset="0%" style="stop-color:#39ff5c;stop-opacity:1" />
      <stop offset="50%" style="stop-color:#00ff41;stop-opacity:1" />
      <stop offset="100%" style="stop-color:#00cc34;stop-opacity:1" />
    </linearGradient>
    
    <!-- Máscara para efecto de pixeles -->
    <pattern id="pro6-pixels" x="0" y="0" width="3" height="3" patternUnits="userSpaceOnUse">
      <rect x="0" y="0" width="2.5" height="2.5" fill="url(#pro6-data)"/>
    </pattern>
    
    <!-- Efecto de datos fluyendo -->
    <filter id="pro6-glow">
      <feGaussianBlur stdDeviation="2" result="coloredBlur"/>
      <feMerge>
        <feMergeNode in="coloredBlur"/>
        <feMergeNode in="SourceGraphic"/>
      </feMerge>
    </filter>
  </defs>
  
  <!-- Logo inspirado en visualización de datos -->
  <g transform="translate(100, 100)">
    <!-- Matriz de datos de fondo -->
    <g opacity="0.3">
      <rect x="-60" y="-60" width="3" height="20" fill="url(#pro6-data)"/>
      <rect x="-50" y="-50" width="3" height="30" fill="url(#pro6-data)"/>
      <rect x="-40" y="-55" width="3" height="25" fill="url(#pro6-data)"/>
      <rect x="-30" y="-45" width="3" height="35" fill="url(#pro6-data)"/>
      <rect x="-20" y="-60" width="3" height="40" fill="url(#pro6-data)"/>
      <rect x="-10" y="-40" width="3" height="45" fill="url(#pro6-data)"/>
      <rect x="0" y="-50" width="3" height="50" fill="url(#pro6-data)"/>
      <rect x="10" y="-45" width="3" height="40" fill="url(#pro6-data)"/>
      <rect x="20" y="-55" width="3" height="35" fill="url(#pro6-data)"/>
      <rect x="30" y="-40" width="3" height="30" fill="url(#pro6-data)"/>
      <rect x="40" y="-50" width="3" height="25" fill="url(#pro6-data)"/>
      <rect x="50" y="-60" width="3" height="20" fill="url(#pro6-data)"/>
    </g>
    
    <!-- DD construido con bloques de datos -->
    <g filter="url(#pro6-glow)">
      <!-- Primera D -->
      <rect x="-40" y="-25" width="4" height="50" fill="url(#pro6-data)"/>
      <rect x="-36" y="-25" width="16" height="4" fill="url(#pro6-data)"/>
      <rect x="-36" y="21" width="16" height="4" fill="url(#pro6-data)"/>
      <path d="M-20 -25 Q0 -25, 0 0 Q0 25, -20 25" 
            fill="none" 
            stroke="url(#pro6-data)" 
            stroke-width="4"/>
      
      <!-- Segunda D -->
      <rect x="0" y="-25" width="4" height="50" fill="url(#pro6-data)"/>
      <rect x="4" y="-25" width="16" height="4" fill="url(#pro6-data)"/>
      <rect x="4" y="21" width="16" height="4" fill="url(#pro6-data)"/>
      <path d="M20 -25 Q40 -25, 40 0 Q40 25, 20 25" 
            fill="none" 
            stroke="url(#pro6-data)" 
            stroke-width="4"/>
    </g>
    
    <!-- Nodos de conexión de datos -->
    <g fill="url(#pro6-data)">
      <circle cx="-40" cy="-30" r="3"/>
      <circle cx="0" cy="-30" r="3"/>
      <circle cx="40" cy="-30" r="3"/>
      <circle cx="-40" cy="30" r="3"/>
      <circle cx="0" cy="30" r="3"/>
      <circle cx="40" cy="30" r="3"/>
    </g>
    
    <!-- Líneas de flujo de datos -->
    <g stroke="url(#pro6-data)" stroke-width="1" fill="none" opacity="0.5">
      <path d="M-40 -30 L0 -30 L40 -30"/>
      <path d="M-40 30 L0 30 L40 30"/>
      <path d="M-60 0 L-40 0"/>
      <path d="M40 0 L60 0"/>
    </g>
  </g>
</svg>