<svg width="200" height="200" viewBox="0 0 200 200" xmlns="http://www.w3.org/2000/svg">
  <defs>
    <!-- Gradientes profesionales -->
    <linearGradient id="pro1-gradient-main" x1="0%" y1="0%" x2="100%" y2="100%">
      <stop offset="0%" style="stop-color:#00ff41;stop-opacity:1" />
      <stop offset="50%" style="stop-color:#00cc34;stop-opacity:1" />
      <stop offset="100%" style="stop-color:#009928;stop-opacity:1" />
    </linearGradient>
    
    <linearGradient id="pro1-gradient-accent" x1="100%" y1="0%" x2="0%" y2="100%">
      <stop offset="0%" style="stop-color:#39ff5c;stop-opacity:1" />
      <stop offset="100%" style="stop-color:#00ff41;stop-opacity:0.8" />
    </linearGradient>
    
    <!-- Sombras profesionales -->
    <filter id="pro1-shadow" x="-50%" y="-50%" width="200%" height="200%">
      <feGaussianBlur in="SourceAlpha" stdDeviation="3"/>
      <feOffset dx="0" dy="2" result="offsetblur"/>
      <feFlood flood-color="#000000" flood-opacity="0.2"/>
      <feComposite in2="offsetblur" operator="in"/>
      <feMerge>
        <feMergeNode/>
        <feMergeNode in="SourceGraphic"/>
      </feMerge>
    </filter>
    
    <!-- Efecto de brillo sutil -->
    <filter id="pro1-glow">
      <feGaussianBlur stdDeviation="4" result="coloredBlur"/>
      <feMerge>
        <feMergeNode in="coloredBlur"/>
        <feMergeNode in="SourceGraphic"/>
      </feMerge>
    </filter>
  </defs>
  
  <!-- Forma abstracta profesional -->
  <g transform="translate(100, 100)">
    <!-- Elemento principal - forma fluida -->
    <path d="M-40 -40 C-20 -60, 20 -60, 40 -40 L40 -20 C50 -10, 50 10, 40 20 L40 40 C20 60, -20 60, -40 40 L-40 20 C-50 10, -50 -10, -40 -20 Z" 
          fill="url(#pro1-gradient-main)" 
          filter="url(#pro1-shadow)"/>
    
    <!-- Corte interior elegante -->
    <path d="M-20 -20 C-10 -30, 10 -30, 20 -20 L20 -10 C25 -5, 25 5, 20 10 L20 20 C10 30, -10 30, -20 20 L-20 10 C-25 5, -25 -5, -20 -10 Z" 
          fill="#0a0a0a"/>
    
    <!-- Detalle central -->
    <circle cx="0" cy="0" r="8" fill="url(#pro1-gradient-accent)" filter="url(#pro1-glow)"/>
    
    <!-- Líneas de energía -->
    <path d="M-30 0 L-10 0 M10 0 L30 0" 
          stroke="url(#pro1-gradient-accent)" 
          stroke-width="2" 
          stroke-linecap="round"
          opacity="0.8"/>
    
    <path d="M0 -30 L0 -10 M0 10 L0 30" 
          stroke="url(#pro1-gradient-accent)" 
          stroke-width="2" 
          stroke-linecap="round"
          opacity="0.8"/>
  </g>
</svg>