<svg width="32" height="32" viewBox="0 0 32 32" xmlns="http://www.w3.org/2000/svg">
  <defs>
    <linearGradient id="f32" x1="0%" y1="0%" x2="100%" y2="100%">
      <stop offset="0%" style="stop-color:#00ff41"/>
      <stop offset="50%" style="stop-color:#39ff5c"/>
      <stop offset="100%" style="stop-color:#00cc34"/>
    </linearGradient>
  </defs>
  
  <!-- Frame for 32px -->
  <path d="M16 4 L24 8 L24 16 L22 20 L16 24 L10 20 L8 16 L8 8 Z" 
        fill="none" 
        stroke="url(#f32)" 
        stroke-width="1.5"/>
  
  <!-- DD optimized for 32px -->
  <g transform="translate(10, 10)">
    <path d="M0 0 L0 12 L6 12 C9 12 11 10 11 6 C11 2 9 0 6 0 Z" 
          fill="url(#f32)"/>
    <path d="M8 1.5 L8 10.5 L12 10.5 C14 10.5 15 9.5 15 7.5 C15 5.5 14 4.5 12 4.5 L8 4.5 Z" 
          fill="url(#f32)" 
          opacity="0.8"/>
  </g>
  
  <!-- Central core -->
  <circle cx="16" cy="16" r="2" fill="url(#f32)"/>
  <circle cx="16" cy="16" r="1" fill="#ffffff"/>
  
  <!-- Recognition points -->
  <circle cx="11" cy="6" r="0.8" fill="url(#f32)"/>
  <circle cx="21" cy="6" r="0.8" fill="url(#f32)"/>
</svg>