<svg width="200" height="200" viewBox="0 0 200 200" xmlns="http://www.w3.org/2000/svg">
  <defs>
    <!-- Gradientes afilados -->
    <linearGradient id="dyn2-sharp" x1="0%" y1="0%" x2="100%" y2="100%">
      <stop offset="0%" style="stop-color:#00ff41;stop-opacity:1" />
      <stop offset="50%" style="stop-color:#39ff5c;stop-opacity:1" />
      <stop offset="100%" style="stop-color:#00cc34;stop-opacity:1" />
    </linearGradient>
    
    <linearGradient id="dyn2-accent" x1="100%" y1="0%" x2="0%" y2="100%">
      <stop offset="0%" style="stop-color:#009928;stop-opacity:1" />
      <stop offset="100%" style="stop-color:#00ff41;stop-opacity:1" />
    </linearGradient>
    
    <!-- Sombra angular -->
    <filter id="dyn2-shadow">
      <feDropShadow dx="2" dy="2" stdDeviation="3" flood-color="#00ff41" flood-opacity="0.3"/>
    </filter>
  </defs>
  
  <!-- Versión angular y afilada -->
  <g transform="translate(100, 100)">
    <!-- Forma angular principal -->
    <path d="M-60 0 L-30 -40 L30 -35 L60 0 L30 40 L-30 35 Z" 
          fill="none" 
          stroke="url(#dyn2-sharp)" 
          stroke-width="4" 
          stroke-linejoin="bevel"
          filter="url(#dyn2-shadow)"/>
    
    <!-- Líneas de velocidad angulares -->
    <g>
      <path d="M-75 -15 L-45 -12 L-40 -10" 
            stroke="url(#dyn2-sharp)" 
            stroke-width="3" 
            stroke-linecap="square" 
            opacity="0.7"/>
      <path d="M-75 0 L-35 0" 
            stroke="url(#dyn2-sharp)" 
            stroke-width="4" 
            stroke-linecap="square" 
            opacity="0.8"/>
      <path d="M-75 15 L-45 12 L-40 10" 
            stroke="url(#dyn2-sharp)" 
            stroke-width="3" 
            stroke-linecap="square" 
            opacity="0.7"/>
    </g>
    
    <!-- Núcleo angular -->
    <path d="M-30 -30 L30 -30 L30 30 L-30 30 Z" 
          fill="url(#dyn2-accent)" 
          opacity="0.2"/>
    
    <path d="M-25 -25 L25 -25 L25 25 L-25 25 Z" 
          fill="none" 
          stroke="url(#dyn2-sharp)" 
          stroke-width="3"/>
    
    <!-- DD angular -->
    <g transform="scale(1.3)">
      <!-- Primera D angular -->
      <path d="M-12 -10 L-12 10 L-2 10 L4 5 L4 -5 L-2 -10 Z" 
            fill="url(#dyn2-sharp)"/>
      
      <!-- Segunda D angular -->
      <path d="M-2 -10 L-2 10 L8 10 L14 5 L14 -5 L8 -10 Z" 
            fill="url(#dyn2-sharp)" 
            opacity="0.8"/>
    </g>
    
    <!-- Puntos de energía angulares -->
    <path d="M-40 -40 L-35 -35 L-40 -30 L-45 -35 Z" fill="url(#dyn2-sharp)"/>
    <path d="M40 40 L35 35 L40 30 L45 35 Z" fill="url(#dyn2-sharp)"/>
    <path d="M40 -40 L35 -35 L40 -30 L45 -35 Z" fill="url(#dyn2-sharp)" opacity="0.7"/>
    <path d="M-40 40 L-35 35 L-40 30 L-45 35 Z" fill="url(#dyn2-sharp)" opacity="0.7"/>
  </g>
</svg>