<svg width="512" height="512" viewBox="0 0 512 512" xmlns="http://www.w3.org/2000/svg">
  <defs>
    <!-- High-resolution gradients -->
    <linearGradient id="app-primary" x1="0%" y1="0%" x2="100%" y2="100%">
      <stop offset="0%" style="stop-color:#00ff41;stop-opacity:1" />
      <stop offset="20%" style="stop-color:#39ff5c;stop-opacity:1" />
      <stop offset="40%" style="stop-color:#00ff41;stop-opacity:1" />
      <stop offset="60%" style="stop-color:#00cc34;stop-opacity:1" />
      <stop offset="80%" style="stop-color:#39ff5c;stop-opacity:1" />
      <stop offset="100%" style="stop-color:#009928;stop-opacity:1" />
    </linearGradient>
    
    <linearGradient id="app-accent" x1="0%" y1="0%" x2="100%" y2="100%">
      <stop offset="0%" style="stop-color:#39ff5c;stop-opacity:1" />
      <stop offset="50%" style="stop-color:#00ff41;stop-opacity:0.9" />
      <stop offset="100%" style="stop-color:#00cc34;stop-opacity:0.7" />
    </linearGradient>
    
    <!-- High-quality filters -->
    <filter id="app-glow" x="-50%" y="-50%" width="200%" height="200%">
      <feGaussianBlur stdDeviation="8" result="coloredBlur"/>
      <feMerge> 
        <feMergeNode in="coloredBlur"/>
        <feMergeNode in="SourceGraphic"/>
      </feMerge>
    </filter>
    
    <filter id="app-shadow" x="-50%" y="-50%" width="200%" height="200%">
      <feDropShadow dx="0" dy="12" stdDeviation="20" flood-color="#00ff41" flood-opacity="0.3"/>
    </filter>
  </defs>
  
  <!-- App icon safe area: 64px padding from edges -->
  <g transform="translate(64, 64)">
    <!-- Main structure - scaled for app icon -->
    <path d="M192 64 L320 128 L320 256 L288 320 L192 384 L96 320 L64 256 L64 128 Z" 
          fill="none" 
          stroke="url(#app-primary)" 
          stroke-width="16" 
          filter="url(#app-glow)"/>
    
    <!-- DD integrated - high detail -->
    <g transform="translate(128, 160)">
      <!-- First D -->
      <path d="M0 0 L0 128 L64 128 C96 128 128 96 128 64 C128 32 96 0 64 0 Z" 
            fill="url(#app-primary)" 
            filter="url(#app-shadow)"/>
      
      <!-- Second D -->
      <path d="M96 16 L96 112 L144 112 C168 112 180 100 180 80 C180 60 168 48 144 48 L96 48 Z" 
            fill="url(#app-accent)" 
            opacity="0.9"/>
    </g>
    
    <!-- Central core - enhanced -->
    <circle cx="192" cy="224" r="32" 
            fill="rgba(0, 255, 65, 0.2)" 
            stroke="url(#app-accent)" 
            stroke-width="4"/>
    <circle cx="192" cy="224" r="20" fill="url(#app-primary)"/>
    <circle cx="192" cy="224" r="12" fill="#ffffff" opacity="0.9"/>
    <circle cx="192" cy="224" r="6" fill="url(#app-primary)"/>
    
    <!-- Enhanced connection points -->
    <circle cx="128" cy="96" r="12" fill="url(#app-primary)">
      <animate attributeName="opacity" values="0.8;1;0.8" dur="3s" repeatCount="indefinite"/>
    </circle>
    <circle cx="256" cy="96" r="12" fill="url(#app-primary)">
      <animate attributeName="opacity" values="1;0.8;1" dur="3s" repeatCount="indefinite"/>
    </circle>
    <circle cx="128" cy="352" r="10" fill="url(#app-accent)">
      <animate attributeName="opacity" values="0.6;1;0.6" dur="4s" repeatCount="indefinite"/>
    </circle>
    <circle cx="256" cy="352" r="10" fill="url(#app-accent)">
      <animate attributeName="opacity" values="1;0.6;1" dur="4s" repeatCount="indefinite"/>
    </circle>
    
    <!-- Dynamic connection lines -->
    <path d="M128 96 L192 160 L256 96" 
          stroke="url(#app-accent)" 
          stroke-width="6" 
          opacity="0.6" 
          fill="none"/>
    <path d="M128 352 L192 288 L256 352" 
          stroke="url(#app-accent)" 
          stroke-width="6" 
          opacity="0.6" 
          fill="none"/>
  </g>
</svg>