<svg width="1024" height="1024" viewBox="0 0 1024 1024" xmlns="http://www.w3.org/2000/svg">
  <defs>
    <!-- Ultra high-resolution gradients -->
    <linearGradient id="app-primary-1024" x1="0%" y1="0%" x2="100%" y2="100%">
      <stop offset="0%" style="stop-color:#00ff41;stop-opacity:1" />
      <stop offset="15%" style="stop-color:#39ff5c;stop-opacity:1" />
      <stop offset="30%" style="stop-color:#00ff41;stop-opacity:1" />
      <stop offset="45%" style="stop-color:#00cc34;stop-opacity:1" />
      <stop offset="60%" style="stop-color:#39ff5c;stop-opacity:1" />
      <stop offset="75%" style="stop-color:#00cc34;stop-opacity:1" />
      <stop offset="90%" style="stop-color:#009928;stop-opacity:1" />
      <stop offset="100%" style="stop-color:#007a1f;stop-opacity:1" />
    </linearGradient>
    
    <linearGradient id="app-accent-1024" x1="0%" y1="0%" x2="100%" y2="100%">
      <stop offset="0%" style="stop-color:#39ff5c;stop-opacity:1" />
      <stop offset="30%" style="stop-color:#00ff41;stop-opacity:0.95" />
      <stop offset="70%" style="stop-color:#00cc34;stop-opacity:0.8" />
      <stop offset="100%" style="stop-color:#009928;stop-opacity:0.7" />
    </linearGradient>
    
    <!-- Ultra high-quality filters -->
    <filter id="app-glow-1024" x="-50%" y="-50%" width="200%" height="200%">
      <feGaussianBlur stdDeviation="16" result="coloredBlur"/>
      <feMerge> 
        <feMergeNode in="coloredBlur"/>
        <feMergeNode in="SourceGraphic"/>
      </feMerge>
    </filter>
    
    <filter id="app-shadow-1024" x="-50%" y="-50%" width="200%" height="200%">
      <feDropShadow dx="0" dy="24" stdDeviation="40" flood-color="#00ff41" flood-opacity="0.4"/>
    </filter>
    
    <filter id="premium-detail" x="-50%" y="-50%" width="200%" height="200%">
      <feGaussianBlur stdDeviation="2" result="softBlur"/>
      <feOffset in="softBlur" dx="0" dy="2" result="offsetBlur"/>
      <feMerge>
        <feMergeNode in="offsetBlur"/>
        <feMergeNode in="SourceGraphic"/>
      </feMerge>
    </filter>
  </defs>
  
  <!-- App icon safe area: 128px padding from edges -->
  <g transform="translate(128, 128)">
    <!-- Main structure - ultra high detail ---->
    <path d="M384 128 L640 256 L640 512 L576 640 L384 768 L192 640 L128 512 L128 256 Z" 
          fill="none" 
          stroke="url(#app-primary-1024)" 
          stroke-width="32" 
          filter="url(#app-glow-1024)"/>
    
    <!-- Secondary structure ring -->
    <path d="M384 192 L576 288 L576 480 L528 576 L384 672 L240 576 L192 480 L192 288 Z" 
          fill="none" 
          stroke="url(#app-accent-1024)" 
          stroke-width="16" 
          opacity="0.6"/>
    
    <!-- DD integrated - ultra high detail ---->
    <g transform="translate(256, 320)">
      <!-- First D with premium detail -->
      <path d="M0 0 L0 256 L128 256 C192 256 256 192 256 128 C256 64 192 0 128 0 Z" 
            fill="url(#app-primary-1024)" 
            filter="url(#app-shadow-1024)"/>
      
      <!-- First D inner detail -->
      <path d="M32 32 L32 224 L96 224 C144 224 176 192 176 128 C176 64 144 32 96 32 Z" 
            fill="rgba(255, 255, 255, 0.1)"/>
      
      <!-- Second D -->
      <path d="M192 32 L192 224 L288 224 C336 224 360 200 360 160 C360 120 336 96 288 96 L192 96 Z" 
            fill="url(#app-accent-1024)" 
            opacity="0.9"
            filter="url(#premium-detail)"/>
      
      <!-- Second D highlight -->
      <path d="M224 64 L224 192 L256 192 C272 192 280 184 280 160 C280 136 272 128 256 128 L224 128 Z" 
            fill="rgba(255, 255, 255, 0.2)"/>
    </g>
    
    <!-- Central core - ultra enhanced -->
    <circle cx="384" cy="448" r="80" 
            fill="rgba(0, 255, 65, 0.15)" 
            stroke="url(#app-accent-1024)" 
            stroke-width="8"/>
    <circle cx="384" cy="448" r="56" 
            fill="rgba(0, 255, 65, 0.2)" 
            stroke="url(#app-primary-1024)" 
            stroke-width="4"/>
    <circle cx="384" cy="448" r="40" fill="url(#app-primary-1024)"/>
    <circle cx="384" cy="448" r="24" fill="#ffffff" opacity="0.95"/>
    <circle cx="384" cy="448" r="16" fill="url(#app-primary-1024)"/>
    <circle cx="384" cy="448" r="8" fill="#ffffff" opacity="0.8"/>
    
    <!-- Ultra enhanced connection points -->
    <circle cx="256" cy="192" r="24" fill="url(#app-primary-1024)">
      <animate attributeName="opacity" values="0.7;1;0.7" dur="3s" repeatCount="indefinite"/>
      <animate attributeName="r" values="24;28;24" dur="3s" repeatCount="indefinite"/>
    </circle>
    <circle cx="512" cy="192" r="24" fill="url(#app-primary-1024)">
      <animate attributeName="opacity" values="1;0.7;1" dur="3s" repeatCount="indefinite"/>
      <animate attributeName="r" values="24;28;24" dur="3s" repeatCount="indefinite"/>
    </circle>
    <circle cx="256" cy="704" r="20" fill="url(#app-accent-1024)">
      <animate attributeName="opacity" values="0.5;1;0.5" dur="4s" repeatCount="indefinite"/>
      <animate attributeName="r" values="20;24;20" dur="4s" repeatCount="indefinite"/>
    </circle>
    <circle cx="512" cy="704" r="20" fill="url(#app-accent-1024)">
      <animate attributeName="opacity" values="1;0.5;1" dur="4s" repeatCount="indefinite"/>
      <animate attributeName="r" values="20;24;20" dur="4s" repeatCount="indefinite"/>
    </circle>
    
    <!-- Premium connection networks -->
    <path d="M256 192 L384 320 L512 192" 
          stroke="url(#app-accent-1024)" 
          stroke-width="12" 
          opacity="0.6" 
          fill="none">
      <animate attributeName="opacity" values="0.6;0.9;0.6" dur="5s" repeatCount="indefinite"/>
    </path>
    <path d="M256 704 L384 576 L512 704" 
          stroke="url(#app-accent-1024)" 
          stroke-width="12" 
          opacity="0.6" 
          fill="none">
      <animate attributeName="opacity" values="0.9;0.6;0.9" dur="5s" repeatCount="indefinite"/>
    </path>
    
    <!-- Data flow lines -->
    <path d="M192 256 Q384 200 576 256" 
          stroke="url(#app-primary-1024)" 
          stroke-width="6" 
          opacity="0.4" 
          fill="none">
      <animate attributeName="opacity" values="0.4;0.8;0.4" dur="6s" repeatCount="indefinite"/>
    </path>
    <path d="M192 640 Q384 696 576 640" 
          stroke="url(#app-primary-1024)" 
          stroke-width="6" 
          opacity="0.4" 
          fill="none">
      <animate attributeName="opacity" values="0.8;0.4;0.8" dur="6s" repeatCount="indefinite"/>
    </path>
  </g>
</svg>